/* XPM */
static char * dir_icon_xpm[] = {
"80 60 174 2",
"  	c None",
". 	c #000000",
"+ 	c #D8DBBF",
"@ 	c #D5D9BC",
"# 	c #D3D7BB",
"$ 	c #D2D5B9",
"% 	c #CFD3B8",
"& 	c #CDD1B5",
"* 	c #CBCEB4",
"= 	c #C9CDB2",
"- 	c #C7CAB1",
"; 	c #C5C8AF",
"> 	c #C3C7AD",
", 	c #C0C4AB",
"' 	c #BFC2AA",
") 	c #BCC0A8",
"! 	c #D7DABF",
"~ 	c #C7CCA8",
"{ 	c #C5C9A6",
"] 	c #C2C7A4",
"^ 	c #BFC4A1",
"/ 	c #BDC19F",
"( 	c #BABF9D",
"_ 	c #B7BC9B",
": 	c #B5B999",
"< 	c #B2B796",
"[ 	c #AFB494",
"} 	c #ADB192",
"| 	c #AAAF90",
"1 	c #A7AC8D",
"2 	c #81856D",
"3 	c #D6D9BF",
"4 	c #A5A98B",
"5 	c #A2A789",
"6 	c #7D816A",
"7 	c #9FA487",
"8 	c #9DA185",
"9 	c #7B7E68",
"0 	c #D5D8BF",
"a 	c #34362C",
"b 	c #DBDDC3",
"c 	c #D9DDC2",
"d 	c #D8DCC2",
"e 	c #D8DBC1",
"f 	c #D7DBC0",
"g 	c #D6DAC0",
"h 	c #D5D9BF",
"i 	c #D5D8BE",
"j 	c #D4D7BD",
"k 	c #D3D6BD",
"l 	c #D2D5BC",
"m 	c #D1D5BB",
"n 	c #D0D4BA",
"o 	c #D0D3BA",
"p 	c #CFD3BA",
"q 	c #CED1B9",
"r 	c #CDD0B8",
"s 	c #CCCFB7",
"t 	c #CACEB6",
"u 	c #CACDB5",
"v 	c #C9CDB5",
"w 	c #C8CBB4",
"x 	c #C8CAB3",
"y 	c #C7CAB2",
"z 	c #C6C9B2",
"A 	c #C5C8B2",
"B 	c #C5C8B1",
"C 	c #C3C7B0",
"D 	c #C2C5AF",
"E 	c #C1C4AE",
"F 	c #C0C3AD",
"G 	c #C0C2AD",
"H 	c #BFC2AC",
"I 	c #BEC1AB",
"J 	c #BDC0AA",
"K 	c #BCBFAA",
"L 	c #CDD1AD",
"M 	c #CBD0AC",
"N 	c #CACFAB",
"O 	c #C9CEAA",
"P 	c #C8CDA9",
"Q 	c #C6CBA7",
"R 	c #C5CAA6",
"S 	c #C4C8A5",
"T 	c #C3C7A4",
"U 	c #C1C6A3",
"V 	c #C0C5A2",
"W 	c #BEC3A1",
"X 	c #BDC2A0",
"Y 	c #BCC09F",
"Z 	c #BBBF9E",
"` 	c #BABE9D",
" .	c #B9BD9C",
"..	c #B6BB9A",
"+.	c #B5BA99",
"@.	c #B4B898",
"#.	c #B3B797",
"$.	c #B2B696",
"%.	c #B1B595",
"&.	c #B0B495",
"*.	c #AFB394",
"=.	c #ADB293",
"-.	c #ACB092",
";.	c #ABAF91",
">.	c #AAAE90",
",.	c #A9AD8F",
"'.	c #A8AC8E",
").	c #A7AB8D",
"!.	c #A6AA8C",
"~.	c #A5A88B",
"{.	c #A3A78A",
"].	c #A2A689",
"^.	c #80836D",
"/.	c #A1A589",
"(.	c #7F836C",
"_.	c #A0A488",
":.	c #7F826B",
"<.	c #9FA387",
"[.	c #7E816B",
"}.	c #9EA286",
"|.	c #7D7F6A",
"1.	c #9DA085",
"2.	c #7C7F69",
"3.	c #9C9F84",
"4.	c #9B9E83",
"5.	c #7A7D67",
"6.	c #999D82",
"7.	c #797C67",
"8.	c #989C81",
"9.	c #787B66",
"0.	c #979B80",
"a.	c #777B65",
"b.	c #969A7F",
"c.	c #777964",
"d.	c #95987E",
"e.	c #767864",
"f.	c #94977D",
"g.	c #757764",
"h.	c #93967D",
"i.	c #747763",
"j.	c #92957C",
"k.	c #737662",
"l.	c #91947B",
"m.	c #727561",
"n.	c #8F937A",
"o.	c #717460",
"p.	c #8E9279",
"q.	c #707360",
"r.	c #8D9078",
"s.	c #6F725F",
"t.	c #8C8F77",
"u.	c #6F715E",
"v.	c #8B8E76",
"w.	c #6E705D",
"x.	c #8A8D75",
"y.	c #6D6F5C",
"z.	c #898C74",
"A.	c #6C6F5C",
"B.	c #888B73",
"C.	c #6B6E5B",
"D.	c #878A72",
"E.	c #6B6C5B",
"F.	c #868872",
"G.	c #8E9278",
"H.	c #8E9177",
"I.	c #8D9077",
"J.	c #8A8E75",
"K.	c #878B73",
"L.	c #868971",
"M.	c #858870",
"N.	c #84876F",
"O.	c #83866F",
"P.	c #82856E",
"Q.	c #81846D",
"                                                                                                                                                                ",
"                                                                                                                                                                ",
"                                                                                                                                                                ",
"                                                                                                                                                                ",
"                                                                                                                                                                ",
"                                                                                                                                                                ",
"                                                                                                                                                                ",
"                                                                                                                                                                ",
"                                                                                                                                                                ",
"                                                                                                                                                                ",
"                                          . . . . . . . . . . . . . .                                                                                           ",
"                                        . + @ # $ % & * = - ; > , ' ) .                                                                                         ",
"                                      . ! @ ~ { ] ^ / ( _ : < [ } | 1 2 .                                                                                       ",
"                                    . 3 @ ~ { ] ^ / ( _ : < [ } | 1 4 5 6 .                                                                                     ",
"                                  . 3 @ ~ { ] ^ / ( _ : < [ } | 1 4 5 7 8 9 .                                                                                   ",
"                                . 3 @ ~ { ] ^ / ( _ : < [ } | 1 4 5 7 8 8 8 9 .                                                                                 ",
"                              . 0 @ ~ { ] ^ / ( _ : < [ } | 1 4 5 7 8 8 8 8 8 9 a . . . . . . . . . . . . . . . . . . . . . .                                   ",
"                              . b b b b b b b b b b c d e f g h i j k l m n o p q r r s t u v w x y z A B C D D E F G H I J K .                                 ",
"                              . b L L L L L L L L M N O P ~ Q R S T U V ^ W X Y Z `  ._ ..+.@.#.$.%.&.*.=.-.;.>.,.'.).!.~.{.].^..                               ",
"                              . b L L L L L L L M N O P ~ Q R S T U V ^ W X Y Z `  ._ ..+.@.#.$.%.&.*.=.-.;.>.,.'.).!.~.{.]./.(..                               ",
"                              . b L L L L L L M N O P ~ Q R S T U V ^ W X Y Z `  ._ ..+.@.#.$.%.&.*.=.-.;.>.,.'.).!.~.{.]./._.:..                               ",
"                              . b L L L L L M N O P ~ Q R S T U V ^ W X Y Z `  ._ ..+.@.#.$.%.&.*.=.-.;.>.,.'.).!.~.{.]./._.<.[..                               ",
"                              . b L L L L M N O P ~ Q R S T U V ^ W X Y Z `  ._ ..+.@.#.$.%.&.*.=.-.;.>.,.'.).!.~.{.]./._.<.}.|..                               ",
"                              . b L L L M N O P ~ Q R S T U V ^ W X Y Z `  ._ ..+.@.#.$.%.&.*.=.-.;.>.,.'.).!.~.{.]./._.<.}.1.2..                               ",
"                              . b L L M N O P ~ Q R S T U V ^ W X Y Z `  ._ ..+.@.#.$.%.&.*.=.-.;.>.,.'.).!.~.{.]./._.<.}.1.3.9 .                               ",
"                              . b L M N O P ~ Q R S T U V ^ W X Y Z `  ._ ..+.@.#.$.%.&.*.=.-.;.>.,.'.).!.~.{.]./._.<.}.1.3.4.5..                               ",
"                              . b M N O P ~ Q R S T U V ^ W X Y Z `  ._ ..+.@.#.$.%.&.*.=.-.;.>.,.'.).!.~.{.]./._.<.}.1.3.4.6.7..                               ",
"                              . c N O P ~ Q R S T U V ^ W X Y Z `  ._ ..+.@.#.$.%.&.*.=.-.;.>.,.'.).!.~.{.]./._.<.}.1.3.4.6.8.9..                               ",
"                              . d O P ~ Q R S T U V ^ W X Y Z `  ._ ..+.@.#.$.%.&.*.=.-.;.>.,.'.).!.~.{.]./._.<.}.1.3.4.6.8.0.a..                               ",
"                              . e P ~ Q R S T U V ^ W X Y Z `  ._ ..+.@.#.$.%.&.*.=.-.;.>.,.'.).!.~.{.]./._.<.}.1.3.4.6.8.0.b.c..                               ",
"                              . f ~ Q R S T U V ^ W X Y Z `  ._ ..+.@.#.$.%.&.*.=.-.;.>.,.'.).!.~.{.]./._.<.}.1.3.4.6.8.0.b.d.e..                               ",
"                              . g Q R S T U V ^ W X Y Z `  ._ ..+.@.#.$.%.&.*.=.-.;.>.,.'.).!.~.{.]./._.<.}.1.3.4.6.8.0.b.d.f.g..                               ",
"                              . h R S T U V ^ W X Y Z `  ._ ..+.@.#.$.%.&.*.=.-.;.>.,.'.).!.~.{.]./._.<.}.1.3.4.6.8.0.b.d.f.h.i..                               ",
"                              . i S T U V ^ W X Y Z `  ._ ..+.@.#.$.%.&.*.=.-.;.>.,.'.).!.~.{.]./._.<.}.1.3.4.6.8.0.b.d.f.h.j.k..                               ",
"                              . j T U V ^ W X Y Z `  ._ ..+.@.#.$.%.&.*.=.-.;.>.,.'.).!.~.{.]./._.<.}.1.3.4.6.8.0.b.d.f.h.j.l.m..                               ",
"                              . k U V ^ W X Y Z `  ._ ..+.@.#.$.%.&.*.=.-.;.>.,.'.).!.~.{.]./._.<.}.1.3.4.6.8.0.b.d.f.h.j.l.n.o..                               ",
"                              . l V ^ W X Y Z `  ._ ..+.@.#.$.%.&.*.=.-.;.>.,.'.).!.~.{.]./._.<.}.1.3.4.6.8.0.b.d.f.h.j.l.n.p.q..                               ",
"                              . m ^ W X Y Z `  ._ ..+.@.#.$.%.&.*.=.-.;.>.,.'.).!.~.{.]./._.<.}.1.3.4.6.8.0.b.d.f.h.j.l.n.p.r.s..                               ",
"                              . n W X Y Z `  ._ ..+.@.#.$.%.&.*.=.-.;.>.,.'.).!.~.{.]./._.<.}.1.3.4.6.8.0.b.d.f.h.j.l.n.p.r.t.u..                               ",
"                              . o X Y Z `  ._ ..+.@.#.$.%.&.*.=.-.;.>.,.'.).!.~.{.]./._.<.}.1.3.4.6.8.0.b.d.f.h.j.l.n.p.r.t.v.w..                               ",
"                              . p Y Z `  ._ ..+.@.#.$.%.&.*.=.-.;.>.,.'.).!.~.{.]./._.<.}.1.3.4.6.8.0.b.d.f.h.j.l.n.p.r.t.v.x.y..                               ",
"                              . q Z `  ._ ..+.@.#.$.%.&.*.=.-.;.>.,.'.).!.~.{.]./._.<.}.1.3.4.6.8.0.b.d.f.h.j.l.n.p.r.t.v.x.z.A..                               ",
"                              . r `  ._ ..+.@.#.$.%.&.*.=.-.;.>.,.'.).!.~.{.]./._.<.}.1.3.4.6.8.0.b.d.f.h.j.l.n.p.r.t.v.x.z.B.C..                               ",
"                              . r  ._ ..+.@.#.$.%.&.*.=.-.;.>.,.'.).!.~.{.]./._.<.}.1.3.4.6.8.0.b.d.f.h.j.l.n.p.r.t.v.x.z.B.D.E..                               ",
"                              . s _ ..+.@.#.$.%.&.*.=.-.;.>.,.'.).!.~.{.]./._.<.}.1.3.4.6.8.0.b.d.f.h.j.l.n.p.r.t.v.x.z.B.D.F.E..                               ",
"                              . t ..+.@.#.$.%.&.*.=.-.;.>.,.'.).!.~.{.]./._.<.}.1.3.4.6.8.0.b.d.f.h.j.l.n.p.r.t.v.x.z.B.D.F.F.E..                               ",
"                              . u +.@.#.$.%.&.*.=.-.;.>.,.'.).!.~.{.]./._.<.}.1.3.4.6.8.0.b.d.f.h.j.l.n.p.r.t.v.x.z.B.D.F.F.F.E..                               ",
"                              . v @.#.$.%.&.*.=.-.;.>.,.'.).!.~.{.]./._.<.}.1.3.4.6.8.0.b.d.f.h.j.l.n.p.r.t.v.x.z.B.D.F.F.F.F.E..                               ",
"                                . G.H.I.t.v.J.z.B.K.D.L.M.N.O.P.Q.^.(.:.[.|.2.9 5.7.9.a.c.e.g.i.k.m.o.q.s.u.w.y.A.C.E.E.E.E.E..                                 ",
"                                  . . . . . . . . . . . . . . . . . . . . . . . . . . . . . . . . . . . . . . . . . . . . . .                                   ",
"                                                                                                                                                                ",
"                                                                                                                                                                ",
"                                                                                                                                                                ",
"                                                                                                                                                                ",
"                                                                                                                                                                ",
"                                                                                                                                                                ",
"                                                                                                                                                                ",
"                                                                                                                                                                ",
"                                                                                                                                                                ",
"                                                                                                                                                                "};
