/* XPM */
static char * dir_icon_small_xpm[] = {
"27 20 82 1",
" 	c None",
".	c #000000",
"+	c #D1D5B9",
"@	c #C9CDB1",
"#	c #C3C6AB",
"$	c #ACB095",
"%	c #8F9379",
"&	c #D8DBC2",
"*	c #BCC0A2",
"=	c #B8BB9E",
"-	c #B2B699",
";	c #9B9E86",
">	c #969A82",
",	c #D8DBBE",
"'	c #D5D9BD",
")	c #D3D7BA",
"!	c #D0D4B8",
"~	c #CED1B6",
"{	c #CBCFB4",
"]	c #C9CDB2",
"^	c #C6C9B0",
"/	c #C4C7AE",
"(	c #C2C5AB",
"_	c #BEC2AA",
":	c #BCBFA8",
"<	c #BABDA5",
"[	c #B6BAA3",
"}	c #CACFAB",
"|	c #C7CCA8",
"1	c #C4C9A5",
"2	c #C1C5A2",
"3	c #BDC2A0",
"4	c #BABF9D",
"5	c #B7BB9A",
"6	c #B4B898",
"7	c #B1B595",
"8	c #ADB193",
"9	c #AAAE90",
"0	c #A7AB8D",
"a	c #A3A78A",
"b	c #82856E",
"c	c #BABE9D",
"d	c #B3B897",
"e	c #B0B595",
"f	c #A7AA8D",
"g	c #A0A488",
"h	c #7F826C",
"i	c #C0C5A2",
"j	c #B0B495",
"k	c #9DA085",
"l	c #7C7F6A",
"m	c #ADB192",
"n	c #999D82",
"o	c #7A7C67",
"p	c #CDD1B6",
"q	c #A9AD8F",
"r	c #A6AA8D",
"s	c #96997F",
"t	c #777A65",
"u	c #B6BB9A",
"v	c #A6AA8C",
"w	c #93967C",
"x	c #747763",
"y	c #C9CCB2",
"z	c #B3B797",
"A	c #A0A387",
"B	c #8F937A",
"C	c #727461",
"D	c #C5C9AF",
"E	c #9FA387",
"F	c #9CA085",
"G	c #8C8F77",
"H	c #6F725E",
"I	c #C3C6AD",
"J	c #8F9279",
"K	c #8C9077",
"L	c #898C74",
"M	c #878A72",
"N	c #848770",
"O	c #81846E",
"P	c #7F826B",
"Q	c #6D6F5D",
"                           ",
"                           ",
"                           ",
"       .....               ",
"      .+@#$%.              ",
"     .&*=-$;>........      ",
"     .,,')!~{]^/(_:<[.     ",
"     .,}|1234567890ab.     ",
"     .'|123c5de89fagh.     ",
"     .)1i3c5dj89fagkl.     ",
"     .!i3c5djm9fagkno.     ",
"     .p3c5djmqragknst.     ",
"     .{cudjmqvagknswx.     ",
"     .yuzjmqvaAknswBC.     ",
"     .DzjmqvaEFnswBGH.     ",
"     .IJKLMNOPlotxCHQ.     ",
"      ...............      ",
"                           ",
"                           ",
"                           "};
