/* XPM */
static char * file_icon_small_xpm[] = {
"27 20 70 1",
" 	c None",
".	c #000000",
"+	c #DCDEC5",
"@	c #DBDEC4",
"#	c #D8DCC2",
"$	c #D6D9C0",
"%	c #D4D7BE",
"&	c #D1D4BC",
"*	c #90947B",
"=	c #D7DABE",
"-	c #C8CDA9",
";	c #C5CAA6",
">	c #C2C7A3",
",	c #BEC3A1",
"'	c #BCC09F",
")	c #B9BE9D",
"!	c #888C74",
"~	c #D4D8BB",
"{	c #C2C6A3",
"]	c #BBC09E",
"^	c #B8BD9C",
"/	c #B5B999",
"(	c #B4B898",
"_	c #82866F",
":	c #D1D5B9",
"<	c #B8BC9B",
"[	c #B2B696",
"}	c #AEB294",
"|	c #CFD2B6",
"1	c #B4B998",
"2	c #ABAF91",
"3	c #A8AC8E",
"4	c #636554",
"5	c #CCD0B5",
"6	c #B1B596",
"7	c #AEB293",
"8	c #A4A88B",
"9	c #83866F",
"0	c #C9CDB3",
"a	c #A1A588",
"b	c #80836D",
"c	c #C7CAB0",
"d	c #AAAF90",
"e	c #A8AB8E",
"f	c #9EA186",
"g	c #7E806A",
"h	c #C4C8AE",
"i	c #A7AB8D",
"j	c #9A9E83",
"k	c #7A7E68",
"l	c #C2C5AC",
"m	c #AAAE90",
"n	c #979A80",
"o	c #797B65",
"p	c #BFC2AA",
"q	c #A0A488",
"r	c #94977D",
"s	c #757964",
"t	c #BCBFA8",
"u	c #A4A88A",
"v	c #9DA185",
"w	c #737561",
"x	c #BABDA5",
"y	c #888C73",
"z	c #858871",
"A	c #80836C",
"B	c #7B7E68",
"C	c #787B66",
"D	c #757864",
"E	c #70735F",
"                           ",
"                           ",
"         ........          ",
"        .+@#$%&.*.         ",
"        .=-;>,'.)!.        ",
"        .~;{,]^/.(_.       ",
"        .:{,]</[}...       ",
"        .|,]<1[}234.       ",
"        .5]<1672389.       ",
"        .0<167238ab.       ",
"        .c167de8afg.       ",
"        .h67di8afjk.       ",
"        .l7mi8afjno.       ",
"        .pmi8qfjnrs.       ",
"        .tiuqvjnr*w.       ",
"        .xyz9AgBCDE.       ",
"         ..........        ",
"                           ",
"                           ",
"                           "};
