/* XPM */
static char * file_icon_xpm[] = {
"80 60 151 2",
"  	c None",
". 	c #000000",
"+ 	c #DCDEC5",
"@ 	c #DADEC4",
"# 	c #D9DDC3",
"$ 	c #D9DCC3",
"% 	c #D8DCC2",
"& 	c #D7DBC1",
"* 	c #D7DAC1",
"= 	c #D6D9C0",
"- 	c #D5D8BF",
"; 	c #D4D7BE",
"> 	c #D3D7BE",
", 	c #D2D6BD",
"' 	c #D2D5BC",
") 	c #D1D4BC",
"! 	c #D0D4BC",
"~ 	c #CFD2BB",
"{ 	c #CFD2BA",
"] 	c #CED1B9",
"^ 	c #CDD1AD",
"/ 	c #CBD0AC",
"( 	c #CACFAB",
"_ 	c #C9CEAA",
": 	c #C8CDA9",
"< 	c #C7CCA8",
"[ 	c #C6CBA7",
"} 	c #C5CAA6",
"| 	c #C4C8A5",
"1 	c #C3C7A4",
"2 	c #C1C6A3",
"3 	c #C0C5A2",
"4 	c #BFC4A1",
"5 	c #BEC3A1",
"6 	c #BDC2A0",
"7 	c #BCC09F",
"8 	c #BBBF9E",
"9 	c #BABE9D",
"0 	c #B9BD9C",
"a 	c #B7BC9B",
"b 	c #B6BB9A",
"c 	c #868872",
"d 	c #767865",
"e 	c #B5BA99",
"f 	c #91957B",
"g 	c #B4B898",
"h 	c #9B9F84",
"i 	c #858770",
"j 	c #747663",
"k 	c #B3B797",
"l 	c #A3A78A",
"m 	c #92967A",
"n 	c #80846D",
"o 	c #6F715E",
"p 	c #B2B696",
"q 	c #B0B495",
"r 	c #0B0B0A",
"s 	c #B1B595",
"t 	c #ACB091",
"u 	c #8B8E76",
"v 	c #82866F",
"w 	c #737664",
"x 	c #AFB394",
"y 	c #ADB293",
"z 	c #ACB092",
"A 	c #A7AB8E",
"B 	c #A2A68A",
"C 	c #92967C",
"D 	c #787B69",
"E 	c #ABAF91",
"F 	c #AAAE90",
"G 	c #A9AD8F",
"H 	c #9FA288",
"I 	c #757764",
"J 	c #A8AC8E",
"K 	c #A4A78A",
"L 	c #7D7F6A",
"M 	c #A7AB8D",
"N 	c #A6AA8C",
"O 	c #7F826B",
"P 	c #A5A88B",
"Q 	c #80836C",
"R 	c #A2A689",
"S 	c #7E816B",
"T 	c #A1A589",
"U 	c #7D816B",
"V 	c #A0A488",
"W 	c #7D806A",
"X 	c #9FA387",
"Y 	c #7C7F69",
"Z 	c #9EA286",
"` 	c #7B7D68",
" .	c #9DA085",
"..	c #7A7D68",
"+.	c #9C9F84",
"@.	c #7A7C67",
"#.	c #9B9E83",
"$.	c #787B66",
"%.	c #999D82",
"&.	c #777A65",
"*.	c #989C81",
"=.	c #767A64",
"-.	c #CDD0B9",
";.	c #979B80",
">.	c #767964",
",.	c #CCCFB8",
"'.	c #969A7F",
").	c #757763",
"!.	c #CBCFB7",
"~.	c #95987E",
"{.	c #747662",
"].	c #CACEB7",
"^.	c #94977D",
"/.	c #737662",
"(.	c #CACDB6",
"_.	c #93967D",
":.	c #737561",
"<.	c #C9CCB5",
"[.	c #92957C",
"}.	c #727460",
"|.	c #C8CBB4",
"1.	c #91947B",
"2.	c #707360",
"3.	c #C8CAB4",
"4.	c #8F937A",
"5.	c #6F735F",
"6.	c #C7CAB4",
"7.	c #8E9279",
"8.	c #C6C9B3",
"9.	c #8D9078",
"0.	c #6E705D",
"a.	c #C5C8B2",
"b.	c #8C8F77",
"c.	c #6D6F5D",
"d.	c #C4C7B2",
"e.	c #6C6F5C",
"f.	c #C3C6B1",
"g.	c #8A8D75",
"h.	c #6B6E5B",
"i.	c #C3C6B0",
"j.	c #898C74",
"k.	c #6B6D5A",
"l.	c #C2C5B0",
"m.	c #888B73",
"n.	c #6A6C59",
"o.	c #C1C4AF",
"p.	c #878A72",
"q.	c #696B59",
"r.	c #C1C3AE",
"s.	c #C0C3AD",
"t.	c #81846D",
"                                                                                                                                                                ",
"                                                                                                                                                                ",
"                                                                                                                                                                ",
"                                                                                                                                                                ",
"                                                                                                                                                                ",
"                                                                                                                                                                ",
"                                                                                                                                                                ",
"                                                                                                                                                                ",
"                                                  . . . . . . . . . . . . . . . . . . . . . . . .                                                               ",
"                                                . + + + + + + + @ # $ % & * = - ; > , ' ) ! ~ { ] . .                                                           ",
"                                                . + ^ ^ ^ ^ ^ / ( _ : < [ } | 1 2 3 4 5 6 7 8 9 0 a . . .                                                       ",
"                                                . + ^ ^ ^ ^ / ( _ : < [ } | 1 2 3 4 5 6 7 8 9 0 a b . c d .                                                     ",
"                                                . + ^ ^ ^ / ( _ : < [ } | 1 2 3 4 5 6 7 8 9 0 a b e . f c d .                                                   ",
"                                                . + ^ ^ / ( _ : < [ } | 1 2 3 4 5 6 7 8 9 0 a b e g . h f i j .                                                 ",
"                                                . + ^ / ( _ : < [ } | 1 2 3 4 5 6 7 8 9 0 a b e g k . l m n o .                                                 ",
"                                                . + / ( _ : < [ } | 1 2 3 4 5 6 7 8 9 0 a b e g k p q r . . . . .                                               ",
"                                                . @ ( _ : < [ } | 1 2 3 4 5 6 7 8 9 0 a b e g k p s q t h u v w .                                               ",
"                                                . # _ : < [ } | 1 2 3 4 5 6 7 8 9 0 a b e g k p s q x y z A B C D .                                             ",
"                                                . $ : < [ } | 1 2 3 4 5 6 7 8 9 0 a b e g k p s q x y z E F G H I .                                             ",
"                                                . % < [ } | 1 2 3 4 5 6 7 8 9 0 a b e g k p s q x y z E F G J K L .                                             ",
"                                                . & [ } | 1 2 3 4 5 6 7 8 9 0 a b e g k p s q x y z E F G J M N O .                                             ",
"                                                . * } | 1 2 3 4 5 6 7 8 9 0 a b e g k p s q x y z E F G J M N P Q .                                             ",
"                                                . = | 1 2 3 4 5 6 7 8 9 0 a b e g k p s q x y z E F G J M N P l O .                                             ",
"                                                . - 1 2 3 4 5 6 7 8 9 0 a b e g k p s q x y z E F G J M N P l R S .                                             ",
"                                                . ; 2 3 4 5 6 7 8 9 0 a b e g k p s q x y z E F G J M N P l R T U .                                             ",
"                                                . > 3 4 5 6 7 8 9 0 a b e g k p s q x y z E F G J M N P l R T V W .                                             ",
"                                                . , 4 5 6 7 8 9 0 a b e g k p s q x y z E F G J M N P l R T V X Y .                                             ",
"                                                . ' 5 6 7 8 9 0 a b e g k p s q x y z E F G J M N P l R T V X Z ` .                                             ",
"                                                . ) 6 7 8 9 0 a b e g k p s q x y z E F G J M N P l R T V X Z  ....                                             ",
"                                                . ! 7 8 9 0 a b e g k p s q x y z E F G J M N P l R T V X Z  .+.@..                                             ",
"                                                . ~ 8 9 0 a b e g k p s q x y z E F G J M N P l R T V X Z  .+.#.$..                                             ",
"                                                . { 9 0 a b e g k p s q x y z E F G J M N P l R T V X Z  .+.#.%.&..                                             ",
"                                                . ] 0 a b e g k p s q x y z E F G J M N P l R T V X Z  .+.#.%.*.=..                                             ",
"                                                . -.a b e g k p s q x y z E F G J M N P l R T V X Z  .+.#.%.*.;.>..                                             ",
"                                                . ,.b e g k p s q x y z E F G J M N P l R T V X Z  .+.#.%.*.;.'.)..                                             ",
"                                                . !.e g k p s q x y z E F G J M N P l R T V X Z  .+.#.%.*.;.'.~.{..                                             ",
"                                                . ].g k p s q x y z E F G J M N P l R T V X Z  .+.#.%.*.;.'.~.^./..                                             ",
"                                                . (.k p s q x y z E F G J M N P l R T V X Z  .+.#.%.*.;.'.~.^._.:..                                             ",
"                                                . <.p s q x y z E F G J M N P l R T V X Z  .+.#.%.*.;.'.~.^._.[.}..                                             ",
"                                                . |.s q x y z E F G J M N P l R T V X Z  .+.#.%.*.;.'.~.^._.[.1.2..                                             ",
"                                                . 3.q x y z E F G J M N P l R T V X Z  .+.#.%.*.;.'.~.^._.[.1.4.5..                                             ",
"                                                . 6.x y z E F G J M N P l R T V X Z  .+.#.%.*.;.'.~.^._.[.1.4.7.o .                                             ",
"                                                . 8.y z E F G J M N P l R T V X Z  .+.#.%.*.;.'.~.^._.[.1.4.7.9.0..                                             ",
"                                                . a.z E F G J M N P l R T V X Z  .+.#.%.*.;.'.~.^._.[.1.4.7.9.b.c..                                             ",
"                                                . d.E F G J M N P l R T V X Z  .+.#.%.*.;.'.~.^._.[.1.4.7.9.b.u e..                                             ",
"                                                . f.F G J M N P l R T V X Z  .+.#.%.*.;.'.~.^._.[.1.4.7.9.b.u g.h..                                             ",
"                                                . i.G J M N P l R T V X Z  .+.#.%.*.;.'.~.^._.[.1.4.7.9.b.u g.j.k..                                             ",
"                                                . l.J M N P l R T V X Z  .+.#.%.*.;.'.~.^._.[.1.4.7.9.b.u g.j.m.n..                                             ",
"                                                . o.M N P l R T V X Z  .+.#.%.*.;.'.~.^._.[.1.4.7.9.b.u g.j.m.p.q..                                             ",
"                                                . r.N P l R T V X Z  .+.#.%.*.;.'.~.^._.[.1.4.7.9.b.u g.j.m.p.c q..                                             ",
"                                                . s.t.Q O S U W Y ` ..@.$.&.=.>.).{./.:.}.2.5.o 0.c.e.h.k.n.q.q.q..                                             ",
"                                                  . . . . . . . . . . . . . . . . . . . . . . . . . . . . . . . .                                               ",
"                                                                                                                                                                ",
"                                                                                                                                                                ",
"                                                                                                                                                                ",
"                                                                                                                                                                ",
"                                                                                                                                                                ",
"                                                                                                                                                                ",
"                                                                                                                                                                ",
"                                                                                                                                                                "};
